<svg width="23" height="30" viewBox="0 0 23 30" fill="none" xmlns="http://www.w3.org/2000/svg">
<path fill-rule="evenodd" clip-rule="evenodd" d="M0 11.1577C0 5.00461 5.00436 0.000189706 11.1574 0C17.3106 0 22.3151 5.00456 22.3151 11.1577C22.3151 13.3399 21.777 14.9051 20.6439 16.5804L11.7947 29.6618C11.6516 29.8733 11.4128 30 11.1576 30C10.9023 30 10.6635 29.8733 10.5204 29.6618L1.67119 16.5804C0.538099 14.9054 0 13.3399 0 11.1577ZM11.1577 6.92521C13.2916 6.92521 15.0052 8.63879 15.0052 10.7727C15.0052 12.9066 13.2916 14.6202 11.1577 14.6202C9.0238 14.6202 7.31022 12.9066 7.31022 10.7727C7.31022 8.63879 9.0238 6.92521 11.1577 6.92521Z" fill="#3CBCC5"/>
</svg>
